<svg xmlns="http://www.w3.org/2000/svg" width="58" height="58" viewBox="0 0 58 58">
    <g fill="none" fill-rule="evenodd">
        <g>
            <g>
                <g transform="translate(-1582 -849) translate(195 850) translate(1388)">
                    <path fill="#005CC7" fill-rule="nonzero" d="M37.547 21.847c-.314.136-.637.25-.968.344.391-.432.69-.94.871-1.496.04-.125-.001-.261-.106-.343-.105-.081-.25-.091-.366-.024-.7.406-1.457.698-2.25.869-.799-.763-1.884-1.197-3.005-1.197-2.368 0-4.294 1.882-4.294 4.195 0 .182.012.364.035.542-2.937-.252-5.668-1.663-7.544-3.91-.067-.08-.17-.124-.275-.116-.106.008-.2.066-.254.156-.38.638-.581 1.367-.581 2.11 0 1.01.37 1.97 1.022 2.718-.199-.067-.391-.15-.575-.25-.099-.054-.219-.053-.317.002s-.16.156-.162.266v.056c0 1.51.83 2.868 2.101 3.608-.109-.01-.218-.026-.326-.046-.112-.021-.227.017-.302.1-.076.083-.1.2-.066.305.47 1.435 1.681 2.49 3.145 2.812-1.214.743-2.603 1.133-4.06 1.133-.304 0-.61-.018-.91-.053-.148-.017-.29.069-.341.207-.05.138.003.293.13.372C20.02 35.38 22.185 36 24.408 36c4.372 0 7.106-2.014 8.63-3.704 1.901-2.107 2.991-4.895 2.991-7.65 0-.116-.002-.232-.005-.348.75-.552 1.395-1.22 1.92-1.988.08-.117.072-.27-.02-.378-.093-.108-.247-.142-.378-.085z"/>
                    <circle cx="28" cy="28" r="28" stroke="#005CC7" opacity=".2"/>
                </g>
            </g>
        </g>
    </g>
</svg>
